<?xml version="1.0" standalone="no"?><!DOCTYPE svg PUBLIC "-//W3C//DTD SVG 1.1//EN" "http://www.w3.org/Graphics/SVG/1.1/DTD/svg11.dtd"><svg t="1563089449695" class="icon" viewBox="0 0 1024 1024" version="1.1" xmlns="http://www.w3.org/2000/svg" p-id="8771" xmlns:xlink="http://www.w3.org/1999/xlink" width="200" height="200"><defs><style type="text/css"></style></defs><path d="M848 806.4V243.2h-107.2c-30.4-27.2-68.8-44.8-113.6-44.8-43.2 0-83.2 17.6-113.6 44.8H179.2v563.2H848z m-636.8-32V275.2h275.2c-6.4 9.6-11.2 20.8-16 32h-11.2l-112 112c-14.4 14.4-36.8 14.4-51.2 0l-54.4-54.4v22.4l43.2 43.2c9.6 9.6 24 16 36.8 16s27.2-4.8 36.8-16l107.2-107.2c-3.2 12.8-4.8 27.2-4.8 41.6 0 38.4 12.8 73.6 35.2 102.4l-49.6 49.6c-20.8 20.8-20.8 52.8 0 73.6l152 152h22.4L457.6 579.2c-14.4-14.4-14.4-36.8 0-51.2l49.6-49.6 6.4 6.4 115.2 115.2 115.2-115.2c32-30.4 52.8-73.6 52.8-120 0-33.6-9.6-64-27.2-89.6h48v499.2H211.2z m552-409.6c0 35.2-14.4 68.8-36.8 92.8l-6.4 6.4c-1.6 1.6-4.8 3.2-6.4 6.4l-86.4 86.4-86.4-86.4c-1.6-1.6-4.8-3.2-6.4-6.4l-6.4-6.4c-22.4-24-36.8-56-36.8-92.8 0-73.6 60.8-134.4 134.4-134.4s137.6 60.8 137.6 134.4z" fill="#707070" p-id="8772"></path><path d="M358.4 680l62.4 62.4h22.4l-73.6-73.6c-19.2-19.2-54.4-19.2-73.6 0L243.2 720v22.4l62.4-62.4c14.4-14.4 38.4-14.4 52.8 0zM627.2 438.4c40 0 73.6-33.6 73.6-73.6s-33.6-73.6-73.6-73.6-73.6 33.6-73.6 73.6 33.6 73.6 73.6 73.6z m-57.6-73.6c0-32 25.6-57.6 57.6-57.6s57.6 25.6 57.6 57.6-25.6 57.6-57.6 57.6-57.6-25.6-57.6-57.6z" fill="#707070" p-id="8773"></path></svg>